# xmcd
#
# Track frame offsets: 
#        150
#        17447
#        38190
#        58469
#        97082
#        113044
#        156053
#        184533
#        207135
#        229829
#
# Disc length: 3518 seconds
#
# Revision: 0
# Processed by: cddbd v1.5.2PL0 Copyright (c) Steve Scherf et al.
# Submitted via: ExactAudioCopy v0.99pb5
#
DISCID=7e0dbc0a
DTITLE=Jeff Healey - As The Years Go Passing By - Deluxe Edition  CD 3
DYEAR=2013
DGENRE=Bluesrock
TTITLE0=My Little Girl
TTITLE1=Which One
TTITLE2=Love Is The Answer
TTITLE3=How Blue Can You Get
TTITLE4=Confidence Man
TTITLE5=Put The Shoe On The Other Foot
TTITLE6=Feel Better
TTITLE7=Angel Eyes
TTITLE8=Roadhouse Blues
TTITLE9=See The Light
EXTD=
EXTT0=
EXTT1=
EXTT2=
EXTT3=
EXTT4=
EXTT5=
EXTT6=
EXTT7=
EXTT8=
EXTT9=
PLAYORDER=
